<?xml version="1.0" encoding="UTF-8"?>
<svg id="Layer_2" data-name="Layer 2" xmlns="http://www.w3.org/2000/svg" viewBox="0 0 1020.4 995.88">
  <defs>
    <style>
      .cls-1 {
        fill: #fff;
      }
    </style>
  </defs>
  <g id="LOGO_SANTOS_GAMES" data-name="LOGO SANTOS GAMES">
    <g>
      <path class="cls-1" d="M1020.4,483.38l-5.8-5.8-130.03-100.58-3.75-9.49-60.08-51.71,7.77-36.93,25.23-110.9-38.54-58.26-23.4,35.72-13.93-65.51-14.21,69.64-13.22-52.88-21.51-52.62-14.9,26.18-57.6-28.75-115.72-29.26,23.44,35.81-29.84-14.48L362.71,0l52.12,77.66-169.45,6.18,33.74,32.39-78.91,60.83,48.26,20.68-141.72,60.83,74.88,15.86-8.96,26.87-121.57,81.82,74.71,3.48-100.36,153.09,71.29-8.49L0,683.97l99.75-15.75,54.78-14.78-9.09,148.25,79.42-47.32-23.95,153.98,154.27-155.96-37.51,225.62,139.58-97.99,53.35-28.79.22-.12,51.43-57.86,3.21,38.5,2.72,1.39,83.2,128.12,57.14,34.63,96.92-88.42,22.75,4.55,2.73,6.82,22.68-115.67.05-.27-.28-1.44.17-.88,2.16-3.47,28.13-27.4,5.24,26.23,24.94-37.27.89-5.73,4.01,19.2,2.08,18.76,35.69-46.81,10.85-59-5.14-22.41,13.44-10.3,9.13-39.38,13.12-30.8-6.78-38.97,29.07-59.85ZM766.01,415.83l-49.18,5.09-46.17-32.22-38.63-3.39,8.3-3.07,66.71-53.72,84.79,32.22v11.87l-10.18,6.78-5.58-4.47,8.58,17.16,52.57,33.92-120.41,176.37-50.88-16.96,47.48,1.7,76.31-144.15-23.74-27.13ZM734.64,286.1l31.37,26.29s-5.09,30.53-5.09,32.22l-15.26-7.91-11.02-50.59ZM810.72,121.67l-17.58,36.96-1.63-7.65,19.2-29.31ZM776.68,99.75l-7.28,78.66-4.83-19.31,12.11-59.35ZM722.43,61.14l-5.48,12.13-1.11-.55,6.59-11.57ZM547.01,16.73l1.65.42,187.67,104.17,19.5,55.4,52.57,91.58-5.09-57.66,33.92-37.31-12.2,108.31-7.07,33.63-51.95-44.71-83.1-44.66h-56.2l-31.99-40.7-15.26-47.48,105.14,33.92,71.23,76.31-15.26-64.44-54.27-74.62-115.73-56.15-23.56-36ZM368.85,4.07l8.8,1.72,122.1,38.64,174.68,91.58-193.33-59.36-62.02,2.26L368.85,4.07ZM205.74,176.36l77.7-59.89-31.3-30.04,11.57-.42,219.08,12.7-228.96,98.27-48.1-20.61ZM148.58,796.52l9-146.84-58.35,15.76-93.51,14.76,96.58-152.5-71.17,8.47,99.75-152.16-71.13-3.31,114.89-77.32.4-.27,10.26-30.79-56.94-12.06,103.43,13.11,183.16-122.1,86.49-3.39,23.74,37.31,136.61,85.36-6.82,6.59-60.26-13.94-42.4-30.53,42.4,49.18,60.26-4.72-30.46,29.4-63.72,4.14-205.2,237.42,54.27-144.15-69.53-101.75-62.75,211.99-50.47,235.54-78.54,46.79ZM321.56,971.82l37.86-227.75-154.38,156.08,23.47-150.86,158.94-206.27-15.07,108.54,25.63,35.61,58.09,190.26-.25.14-134.28,94.25ZM571.67,833.32l89.38,45.49,46.4,113.12-54.06-32.76-81.72-125.85ZM804.59,904.42l-93.06,84.89,66.35-100.33,3.39-97.98,47.32,118.22-24-4.8ZM911.15,757.89l.43-1.84-.24,1.56-.19.28ZM959.26,661.53l5.42,23.61-10.63,57.76-31.01,40.67-1.33-11.9-6.51-31.21.86-3.72,8.98,43.57,26.4-35.82,9.74-54.32-6.58-30.51,3.85-26.84-116.74,28.91-75.82,19.93-23.15.18-12.2-5.04,12.35,9.02,21.36,20.33,6.35,6.35,23.7,21.49,11.74,6.35-3.9,1.52,5.7,4.6,21.08,13.74,17.47-7.17,8.98,37.02,31.32-31.32,5.7,25.85,9.93-13.52-11.81,17.65-4.93-24.65-31.97,31.14-2.21,3.49-7.39-38.59-25.44,57.66-115.32-158.66-13.48,8.68,50.79,75.36s-20.35,159.41-22.05,161.11l10.18-152.63-54.24-73.97-1.94,1.25-6.57,108.33,20.98,62.93c.67,1.68,1.07,2.83,1.07,3.21l-1.07-3.21c-5.37-13.42-29.46-62.93-29.46-62.93v-98.65l-29.55,19.03-3.39,13.29,10.9,68.02,11.87,57.66-15.26-55.96-11.87-69.53.75-8.96-.75.48-54.68,74.69-.14-1.78-56.3,63.33-50.5,27.25,98.87-131.27,37.31-115.32-70.1-86.49,2.26-23.74-25.44,28.83-44.94,126.63,33.07-135.11,44.09-57.66-18.65-59.36,54.27-62.75h23.18l-23.01,28.9-.17-.07-25.44,32.22,27.13,132.28,120.72,67.49.03.02-29.18,19.83-54.27-31.37-3.39,69.53-50.88,86.49,86.49-94.97,67.69-41.17h0s32.32,15.2,32.32,15.2l7.21-3.71,57.66-16.11-39.95,20.35-16.39,25.25,18.65-13.38,9.8-5.09,39.38-16.96,45.79-10.18-10.46,16.11,100.34-24.59-6.78-59.36-23.96-18.03-23.8-18.15-35.33-57.09,64.44,33.92,82.6,1.69-21.32,43.9.41,2.33-19.29,38.58-3.39,44.09,7.6,21.28-.38,1.64-14.08,10.79Z"/>
      <polygon class="cls-1" points="478.84 377.88 504.84 331.04 437.01 310.69 470.93 298.82 440.4 273.06 510.5 286.1 481.1 251.33 448.88 239.46 492.97 242.85 521.8 254.72 416.66 164.84 370.87 210.63 396.31 303.9 478.84 377.88"/>
      <polygon class="cls-1" points="206.37 558.29 251.4 463.32 183.19 476.88 311.51 337.82 319.62 232.68 147.01 420.92 126.66 615.95 150.03 644.78 199.58 570.16 154.55 543.02 206.37 558.29"/>
    </g>
  </g>
</svg>